<?xml version="1.0" encoding="UTF-8" standalone="no"?>
<svg
   id="svg"
   version="1.1"
   width="400"
   height="383.58662613981767"
   viewBox="0, 0, 400,383.58662613981767"
   sodipodi:docname="image2vector.svg"
   inkscape:version="1.3.2 (091e20e, 2023-11-25, custom)"
   xmlns:inkscape="http://www.inkscape.org/namespaces/inkscape"
   xmlns:sodipodi="http://sodipodi.sourceforge.net/DTD/sodipodi-0.dtd"
   xmlns="http://www.w3.org/2000/svg"
   xmlns:svg="http://www.w3.org/2000/svg">
  <defs
     id="defs1">
    <inkscape:path-effect
       effect="fillet_chamfer"
       id="path-effect1"
       is_visible="true"
       lpeversion="1"
       nodesatellites_param="F,0,0,1,0,0,0,1 @ F,0,0,1,0,1.0150855,0,1 @ F,0,0,1,0,1.0150855,0,1 @ F,0,0,1,0,0,0,1 @ F,0,0,1,0,0,0,1 @ F,0,0,1,0,0,0,1 @ F,0,0,1,0,0,0,1 @ F,0,0,1,0,0,0,1 @ F,0,0,1,0,0,0,1 @ F,0,0,1,0,0,0,1 @ F,0,0,1,0,0,0,1 @ F,0,0,1,0,0,0,1 @ F,0,0,1,0,0,0,1 @ F,0,0,1,0,0,0,1 @ F,0,0,1,0,0,0,1 @ F,0,0,1,0,0,0,1 @ F,0,0,1,0,0,0,1 @ F,0,0,1,0,0,0,1 @ F,0,0,1,0,0,0,1 @ F,0,0,1,0,0,0,1 @ F,0,0,1,0,0,0,1 @ F,0,0,1,0,0,0,1 @ F,0,0,1,0,0,0,1 @ F,0,0,1,0,0,0,1 @ F,0,0,1,0,0,0,1 @ F,0,0,1,0,0,0,1 @ F,0,0,1,0,0,0,1 @ F,0,0,1,0,0,0,1 @ F,0,0,1,0,0,0,1 @ F,0,0,1,0,0,0,1 @ F,0,0,1,0,0,0,1 @ F,0,0,1,0,5.3698849,0,1 @ F,0,0,1,0,5.3698849,0,1 @ F,0,0,1,0,0,0,1 @ F,0,0,1,0,0,0,1 @ F,0,0,1,0,0,0,1 @ F,0,0,1,0,0,0,1 @ F,0,0,1,0,0,0,1 @ F,0,0,1,0,0,0,1 @ F,0,0,1,0,0,0,1 @ F,0,0,1,0,0,0,1 @ F,0,0,1,0,0,0,1 @ F,0,0,1,0,0,0,1 @ F,0,0,1,0,0,0,1 @ F,0,0,1,0,0,0,1 @ F,0,0,1,0,0,0,1 @ F,0,0,1,0,0,0,1 @ F,0,0,1,0,0,0,1 @ F,0,0,1,0,0,0,1 @ F,0,0,1,0,0,0,1 @ F,0,0,1,0,0,0,1 @ F,0,0,1,0,0,0,1 @ F,0,0,1,0,0,0,1 @ F,0,0,1,0,0,0,1 @ F,0,0,1,0,0,0,1 @ F,0,0,1,0,0,0,1 @ F,0,0,1,0,0,0,1 @ F,0,0,1,0,0,0,1 @ F,0,0,1,0,0,0,1 @ F,0,0,1,0,0,0,1 @ F,0,0,1,0,0,0,1 @ F,0,0,1,0,0,0,1 @ F,0,0,1,0,0,0,1 @ F,0,0,1,0,1.6105978,0,1 @ F,0,0,1,0,1.6105978,0,1 @ F,0,0,1,0,0,0,1 @ F,0,0,1,0,0,0,1 @ F,0,0,1,0,0,0,1 @ F,0,0,1,0,0,0,1 @ F,0,0,1,0,0,0,1 @ F,0,0,1,0,0,0,1 @ F,0,0,1,0,0,0,1 | F,0,0,1,0,0,0,1 @ F,0,0,1,0,0,0,1 @ F,0,0,1,0,0,0,1 @ F,0,0,1,0,0,0,1 | F,0,0,1,0,0,0,1 @ F,0,0,1,0,0.56142975,0,1 @ F,0,0,1,0,0.014403363,0,1 @ F,0,0,1,0,0.23196242,0,1 @ F,0,0,1,0,1.4008583,0,1 @ F,0,0,1,0,0,0,1 | F,0,0,1,0,0,0,1 @ F,0,0,1,0,0,0,1 @ F,0,0,1,0,0,0,1 @ F,0,0,1,0,0,0,1 | F,0,0,1,0,0,0,1 @ F,0,0,1,0,0,0,1 @ F,0,0,1,0,0,0,1 @ F,0,0,1,0,0,0,1 | F,0,0,1,0,0,0,1 @ F,0,0,1,0,0,0,1 @ F,0,0,1,0,0,0,1 @ F,0,0,1,0,0,0,1 @ F,0,0,1,0,0,0,1 @ F,0,0,1,0,0,0,1 @ F,0,0,1,0,0,0,1 @ F,0,0,1,0,0,0,1 @ F,0,0,1,0,0,0,1 @ F,0,0,1,0,0,0,1 @ F,0,0,1,0,0,0,1 @ F,0,0,1,0,0,0,1 @ F,0,0,1,0,0,0,1 @ F,0,0,1,0,0,0,1 @ F,0,0,1,0,0,0,1 @ F,0,0,1,0,0,0,1 @ F,0,0,1,0,2.8603916,0,1 @ F,0,0,1,0,0,0,1 @ F,0,0,1,0,0,0,1 @ F,0,0,1,0,1.8699478,0,1 @ F,0,0,1,0,0,0,1 @ F,0,0,1,0,0,0,1 @ F,0,0,1,0,0,0,1 @ F,0,0,1,0,2.725854,0,1 @ F,0,0,1,0,0,0,1 @ F,0,0,1,0,0,0,1 @ F,0,0,1,0,0,0,1 @ F,0,0,1,0,0,0,1 @ F,0,0,1,0,0,0,1 @ F,0,0,1,0,0,0,1 | F,0,0,1,0,0,0,1 @ F,0,0,1,0,0,0,1 @ F,0,0,1,0,0,0,1 @ F,0,0,1,0,0,0,1 @ F,0,0,1,0,0,0,1 @ F,0,0,1,0,0,0,1 @ F,0,0,1,0,3.1588414,0,1 @ F,0,0,1,0,0,0,1 @ F,0,0,1,0,0,0,1 @ F,0,0,1,0,0,0,1 @ F,0,0,1,0,0.92596719,0,1 @ F,0,0,1,0,0,0,1 @ F,0,0,1,0,0,0,1 @ F,0,0,1,0,1.9145942,0,1 @ F,0,0,1,0,0.060443078,0,1 @ F,0,0,1,0,0,0,1 @ F,0,0,1,0,0,0,1 @ F,0,0,1,0,0,0,1 @ F,0,0,1,0,0,0,1 @ F,0,0,1,0,0,0,1 @ F,0,0,1,0,0,0,1 @ F,0,0,1,0,0,0,1 @ F,0,0,1,0,0,0,1 @ F,0,0,1,0,0,0,1 @ F,0,0,1,0,0,0,1 @ F,0,0,1,0,0,0,1 @ F,0,0,1,0,0,0,1 @ F,0,0,1,0,0,0,1 @ F,0,0,1,0,0,0,1 @ F,0,0,1,0,0,0,1 | F,0,0,1,0,0,0,1 @ F,0,0,1,0,0,0,1 @ F,0,0,1,0,0,0,1 @ F,0,0,1,0,0,0,1 | F,0,0,1,0,0,0,1 @ F,0,0,1,0,4.210507,0,1 @ F,0,0,1,0,0,0,1 @ F,0,0,1,0,0,0,1"
       radius="0"
       unit="px"
       method="auto"
       mode="F"
       chamfer_steps="1"
       flexible="false"
       use_knot_distance="true"
       apply_no_radius="true"
       apply_with_radius="true"
       only_selected="false"
       hide_knots="false" />
  </defs>
  <sodipodi:namedview
     id="namedview1"
     pagecolor="#ffffff"
     bordercolor="#000000"
     borderopacity="0.25"
     inkscape:showpageshadow="2"
     inkscape:pageopacity="0.0"
     inkscape:pagecheckerboard="0"
     inkscape:deskcolor="#d1d1d1"
     inkscape:zoom="2.1820364"
     inkscape:cx="248.62097"
     inkscape:cy="223.41516"
     inkscape:window-width="1920"
     inkscape:window-height="1051"
     inkscape:window-x="-9"
     inkscape:window-y="-9"
     inkscape:window-maximized="1"
     inkscape:current-layer="svg" />
  <g
     id="svgg">
    <path
       id="path0"
       d="m 107.903,59.464 c -0.60821,-0.142906 -3.51739,-0.575503 -5.08349,-0.804351 -0.55422,-0.08099 -0.84294,0.279541 -0.64796,0.805155 1.05635,2.847541 1.95515,5.467006 3.15925,8.358119 0.21511,0.516492 0.81692,1.103116 1.34577,1.289138 1.3662,0.480558 4.19178,1.370922 8.38946,2.191941 38.661,7.561 67.717,34.887998 76.081,71.552998 2.492,10.922 2.774,17.421 2.774,63.897 v 44.784 l -16.776,-16.903 c -9.227,-9.296 -17.171,-17.466 -17.653,-18.156 -0.746,-1.063 -0.873,-7.505 -0.842,-42.62 l 0.036,-41.368 -1.504,-1.504 c -3.993,-3.993 -8.457,-0.61 -9.254,7.013 -0.212,2.026 -0.6,3.606 -0.863,3.51 -0.262,-0.095 -11.985,-11.614 -26.051,-25.597 L 95.441,90.488 95.435,86.733 C 95.411,71.749 77.771,65.627 70.682,78.144 c -5.175,9.136 3.723,21.555 14.31,19.971 2.105,-0.315 2.837,-0.168 3.719,0.747 0.605,0.626 14.092,14.049 29.972,29.829 l 28.873,28.691 0.112,23.437 c 0.062,12.89 -0.038,23.436 -0.222,23.436 -0.926,0 -56.98,-56.47 -56.625,-57.045 0.225,-0.365 0.428,-2.169 0.45,-4.01 0.168,-14.051 -18.294,-18.781 -24.157,-6.189 -4.15,8.912 2.064,18.612 11.923,18.612 h 3.795 l 48.857,48.784 c 68.335,68.234 62.87913,56.72101 63.03713,116.88701 0.0586,22.37766 0.56147,31.73022 -1.97671,36.88961 -1.29416,2.63065 -1.16008,4.2604 1.75718,4.27162 2.64349,0.0102 5.83392,-0.0288 8.48401,-0.0905 2.95228,-0.0687 3.03506,-1.59675 1.90488,-4.29107 -2.06446,-4.92166 -1.01133,-14.11173 -0.80464,-38.22763 0.381,-44.495 1.08415,-43.346 5.73415,-52.569 4.151,-8.232 6.894,-11.187 56.811,-61.198 l 50.058,-50.152 h 3.825 c 10.944,0 17.6,-12.634 11.158,-21.178 -7.999,-10.61 -24.402,-3.86 -23.322,9.597 l 0.311,3.879 -27.9,27.863 c -15.345,15.325 -28.169,27.955 -28.497,28.066 -0.384,0.13 -0.597,-8.042 -0.597,-22.889 v -23.093 l 30.124,-29.998 30.124,-29.998 4.678,-0.337 c 13.364,-0.962 18.84,-14.062 9.639,-23.058 -8.508,-8.318 -22.775,-0.481 -21.506,11.813 l 0.341,3.302 -26.093,25.873 c -14.35,14.23 -26.333,25.872 -26.629,25.872 -0.295,0 -0.65,-1.773 -0.788,-3.94 -0.386,-6.077 -4.212,-9.472 -8.292,-7.362 -2.785,1.44 -2.749,0.827 -2.642,44.737 l 0.101,41.033 -17.933,18.08 -17.933,18.079 0.034,-30.845 c 0.046,-42.233 0.753,-64.921 2.28,-73.11 7.154,-38.388 37.925,-69.557 75.577,-76.558 3.802,-0.707 7.866,-1.48 9.033,-1.718 0.57038,-0.116095 1.39218,-0.256697 2.11721,-0.375271 0.87766,-0.143536 1.84919,-0.924419 2.16269,-1.756851 1.13762,-3.020743 1.59031,-4.432117 2.5808,-7.715858 0.25694,-0.851815 -0.24939,-1.438627 -1.12908,-1.306789 -1.37482,0.206041 -3.32599,0.504821 -4.54326,0.718835 C 284.04492,61.171159 275.556,61.761 266.282,64.838 c -27.217,9.03 -53.394,34.021 -64.507,61.585 -1.276,3.165 -2.45,5.354 -2.608,4.863 -0.159,-0.49 -0.72,-2.259 -1.247,-3.93 -8.233,-26.1 -36.655,-53.414 -65.457,-62.906 -7.622,-2.512 -24.56,-4.986 -24.56,-4.986 M 85.258,81.552 c 2.322,2.744 0.631,7.202 -2.73,7.202 -4.343,0 -6.396,-5.278 -3.071,-7.893 1.925,-1.514 4.161,-1.248 5.801,0.691 m 234.53601,-1.189029 c 1.75303,0.90629 2.31343,2.722396 2.22362,4.263355 -0.018,0.309391 -0.0987,0.808258 -0.19524,1.102588 -0.48618,1.481643 -1.88722,2.362538 -4.04178,2.216321 -0.008,-5.39e-4 -0.0208,-0.0014 -0.0287,-0.002 -2.87889,-0.205569 -4.07663,-1.619572 -4.07941,-3.739269 -1.7e-4,-0.128059 0.008,-0.335684 0.0179,-0.463382 0.13248,-1.668235 1.00605,-2.943843 2.78051,-3.66503 0.71579,-0.290918 1.98301,-0.376138 2.70352,-0.101859 0.2695,0.10259 0.50455,0.232031 0.61964,0.389281 M 81.841,139.706 c 3.297,4.435 -1.657,9.847 -5.613,6.131 -1.938,-1.821 -1.9,-4.415 0.094,-6.409 1.725,-1.725 4.12,-1.604 5.519,0.278 M 324.116,139 c 1.563,1.414 1.448,4.713 -0.218,6.265 -1.826,1.701 -5.005,1.644 -6.234,-0.112 -2.958,-4.222 2.663,-9.583 6.452,-6.153 M 73.592,194.681 c -4.714,1.574 -8.54,7.088 -8.54,12.31 0,8.726 9.253,15.905 16.801,13.035 1.645,-0.625 2.05,-0.277 15.235,13.079 l 13.545,13.721 -0.32,23.752 -0.321,23.752 2.379,2.379 c 2.797,2.796 4.725,3.041 7.2,0.913 l 1.706,-1.466 0.304,-19.14 0.303,-19.139 15.567,15.286 c 18.622,18.288 22.774,23.502 28.436,35.711 3.87,8.345 3.95,7.844 -1.256,7.837 -8.096,-0.011 -21.986,-1.245 -28.157,-2.502 -46.604844,-9.49374 -81.22492,-51.73165 -83.800926,-99.66466 -0.08477,-1.57743 -1.05007,-2.15041 -2.302599,-2.2381 -0.279645,-0.0196 -0.58054,-0.0411 -0.900439,-0.0615 -0.724557,-0.0462 -1.702567,0.25745 -2.440036,-0.0868 -1.612109,-0.75253 -3.445378,-3.07631 -4.560823,-4.65916 -0.594428,-0.84351 -0.982701,-0.7207 -0.919553,0.31011 L 42.214,218.654 c 3.478,51.916 41.133,95.365 91.525,105.607 10.254,2.084 19.015,2.779 35.106,2.785 l 10.80015,0.005 a 2.4924764,2.4924764 132.4647 0 0 2.48373,-2.71387 l -0.0424,-0.47575 C 181.31481,319.29664 178.418,308.76 174.775,301.525 c -6.213,-12.337 -9.22,-15.714 -50.119,-56.303 l -34.078,-33.82 v -3.289 c 0,-9.176 -8.827,-16.156 -16.986,-13.432 m 242.471,0.651 c -4.397,2.326 -6.886,6.413 -7.156,11.752 l -0.222,4.404 -24.403,24.31 c -13.422,13.371 -29.022,28.773 -34.666,34.226 -19.576,18.913 -29.61188,36.68848 -31.90445,52.05067 l -0.2538,1.99963 a 2.736274,2.736274 48.133608 0 0 2.76064,3.08042 L 235.734,326.893 c 19.933,-0.337 26.356,-1.067 37.822,-4.299 44.091,-12.427 76.238,-49.608 83.235,-96.267 0.94799,-6.31896 3.3181,-21.35273 3.92711,-25.21036 0.0797,-0.50512 -0.3105,-0.85215 -0.63587,-0.48214 -1.4871,1.6911 -3.07283,7.80965 -6.10543,9.31036 -0.75568,0.37396 -1.68893,-0.0811 -2.52777,-0.0923 -0.40655,-0.005 -0.8134,-0.006 -1.22228,-4.9e-4 -1.05722,0.0137 -2.05075,0.91329 -2.21616,1.95767 -0.44189,2.79007 -0.53803,3.58767 -1.12204,7.59157 -0.005,0.0324 -0.0106,0.0857 -0.0131,0.11897 -3.45682,46.14584 -38.27452,85.32285 -84.2615,94.79972 -4.963,1.022 -29.967,2.641 -32.608,2.11 -0.047,-0.009 0.67,-1.972 1.593,-4.361 4.019,-10.405 11.69,-20.693 24.864,-33.346 4.874,-4.68 11.596,-11.177 14.937,-14.437 3.342,-3.26 6.138,-5.927 6.213,-5.927 0.075,0 0.151,8.822 0.169,19.605 0.037,22.221 0.051,22.282 4.791,21.513 6.615,-1.073 6.789,-1.835 6.789,-29.682 v -23.254 l 12.918,-13.088 12.918,-13.088 2.951,0.176 c 9.641,0.576 16.729,-6.099 16.075,-15.137 -0.65,-8.985 -10.2,-14.281 -18.161,-10.072 m 6.996,7.955 c 4.334,1.811 3.221,7.655 -1.458,7.655 -4.126,0 -4.91014,-4.25158 -3.18893,-6.46814 1.20085,-1.08857 2.03293,-2.27886 4.64693,-1.18686 m -242.370029,0.92749 c 1.149254,1.14925 1.14256,2.77249 0.692884,4.2518 -0.667866,2.1971 -4.04952,3.03476 -5.895583,1.63326 -1.475652,-1.12029 -2.035173,-2.38107 -1.67091,-3.87163 0.856,-3.501 4.570609,-4.31543 6.873609,-2.01343"
       stroke="none"
       fill="#000000"
       fill-rule="evenodd"
       inkscape:path-effect="#path-effect1"
       inkscape:original-d="m 107.903,59.464 c -0.84146,-0.197711 -6.08716,-0.949913 -6.08716,-0.949913 1.3343,3.533024 2.35988,6.646898 3.91027,10.241584 0,0 3.20416,1.348247 9.33992,2.548331 38.661,7.561 67.717,34.887998 76.081,71.552998 2.492,10.922 2.774,17.421 2.774,63.897 v 44.784 l -16.776,-16.903 c -9.227,-9.296 -17.171,-17.466 -17.653,-18.156 -0.746,-1.063 -0.873,-7.505 -0.842,-42.62 l 0.036,-41.368 -1.504,-1.504 c -3.993,-3.993 -8.457,-0.61 -9.254,7.013 -0.212,2.026 -0.6,3.606 -0.863,3.51 -0.262,-0.095 -11.985,-11.614 -26.051,-25.597 L 95.441,90.488 95.435,86.733 C 95.411,71.749 77.771,65.627 70.682,78.144 c -5.175,9.136 3.723,21.555 14.31,19.971 2.105,-0.315 2.837,-0.168 3.719,0.747 0.605,0.626 14.092,14.049 29.972,29.829 l 28.873,28.691 0.112,23.437 c 0.062,12.89 -0.038,23.436 -0.222,23.436 -0.926,0 -56.98,-56.47 -56.625,-57.045 0.225,-0.365 0.428,-2.169 0.45,-4.01 0.168,-14.051 -18.294,-18.781 -24.157,-6.189 -4.15,8.912 2.064,18.612 11.923,18.612 h 3.795 l 48.857,48.784 c 68.335,68.234 62.87913,56.72101 63.03713,116.88701 0.0775,29.58726 0.9316,36.40461 -5.49348,40.86597 -0.80871,0.56154 19.48233,0.20167 19.09827,-0.0632 -6.33164,-4.36715 -4.5184,-9.77595 -4.24007,-42.25072 0.381,-44.495 1.08415,-43.346 5.73415,-52.569 4.151,-8.232 6.894,-11.187 56.811,-61.198 l 50.058,-50.152 h 3.825 c 10.944,0 17.6,-12.634 11.158,-21.178 -7.999,-10.61 -24.402,-3.86 -23.322,9.597 l 0.311,3.879 -27.9,27.863 c -15.345,15.325 -28.169,27.955 -28.497,28.066 -0.384,0.13 -0.597,-8.042 -0.597,-22.889 v -23.093 l 30.124,-29.998 30.124,-29.998 4.678,-0.337 c 13.364,-0.962 18.84,-14.062 9.639,-23.058 -8.508,-8.318 -22.775,-0.481 -21.506,11.813 l 0.341,3.302 -26.093,25.873 c -14.35,14.23 -26.333,25.872 -26.629,25.872 -0.295,0 -0.65,-1.773 -0.788,-3.94 -0.386,-6.077 -4.212,-9.472 -8.292,-7.362 -2.785,1.44 -2.749,0.827 -2.642,44.737 l 0.101,41.033 -17.933,18.08 -17.933,18.079 0.034,-30.845 c 0.046,-42.233 0.753,-64.921 2.28,-73.11 7.154,-38.388 37.925,-69.557 75.577,-76.558 3.802,-0.707 7.866,-1.48 9.033,-1.718 1.25007,-0.254438 3.70773,-0.626585 3.70773,-0.626585 1.78194,-4.655995 2.10011,-5.716745 3.61714,-10.764063 0,0 -4.09767,0.596258 -6.13651,0.954714 C 284.04492,61.171159 275.556,61.761 266.282,64.838 c -27.217,9.03 -53.394,34.021 -64.507,61.585 -1.276,3.165 -2.45,5.354 -2.608,4.863 -0.159,-0.49 -0.72,-2.259 -1.247,-3.93 -8.233,-26.1 -36.655,-53.414 -65.457,-62.906 -7.622,-2.512 -24.56,-4.986 -24.56,-4.986 M 85.258,81.552 c 2.322,2.744 0.631,7.202 -2.73,7.202 -4.343,0 -6.396,-5.278 -3.071,-7.893 1.925,-1.514 4.161,-1.248 5.801,0.691 m 234.53601,-1.189029 c 1.97017,1.018545 2.43396,3.18625 2.16135,4.821041 -0.30176,1.809593 -1.77356,2.929019 -4.18912,2.760233 -2.9932,-0.209148 -4.17526,-1.720438 -4.08945,-3.972116 0.0826,-2.166174 1.3512,-3.709707 4.13421,-4.298129 0.101,-0.021 1.62437,0.198971 1.98301,0.688971 M 81.841,139.706 c 3.297,4.435 -1.657,9.847 -5.613,6.131 -1.938,-1.821 -1.9,-4.415 0.094,-6.409 1.725,-1.725 4.12,-1.604 5.519,0.278 M 324.116,139 c 1.563,1.414 1.448,4.713 -0.218,6.265 -1.826,1.701 -5.005,1.644 -6.234,-0.112 -2.958,-4.222 2.663,-9.583 6.452,-6.153 M 73.592,194.681 c -4.714,1.574 -8.54,7.088 -8.54,12.31 0,8.726 9.253,15.905 16.801,13.035 1.645,-0.625 2.05,-0.277 15.235,13.079 l 13.545,13.721 -0.32,23.752 -0.321,23.752 2.379,2.379 c 2.797,2.796 4.725,3.041 7.2,0.913 l 1.706,-1.466 0.304,-19.14 0.303,-19.139 15.567,15.286 c 18.622,18.288 22.774,23.502 28.436,35.711 3.87,8.345 3.95,7.844 -1.256,7.837 -8.096,-0.011 -21.986,-1.245 -28.157,-2.502 -47.529,-9.682 -82.593213,-53.41965 -83.916213,-102.52265 0.579258,0.916 -0.744364,0.70784 -3.087751,0.55843 -0.724557,-0.0462 -1.702567,0.25745 -2.440036,-0.0868 -2.525892,-1.17908 -5.594716,-6.2155 -5.594716,-6.2155 L 42.214,218.654 c 3.478,51.916 41.133,95.365 91.525,105.607 10.254,2.084 19.015,2.779 35.106,2.785 l 13.526,0.006 -0.28455,-3.19083 C 181.31481,319.29664 178.418,308.76 174.775,301.525 c -6.213,-12.337 -9.22,-15.714 -50.119,-56.303 l -34.078,-33.82 v -3.289 c 0,-9.176 -8.827,-16.156 -16.986,-13.432 m 242.471,0.651 c -4.397,2.326 -6.886,6.413 -7.156,11.752 l -0.222,4.404 -24.403,24.31 c -13.422,13.371 -29.022,28.773 -34.666,34.226 -19.576,18.913 -29.61188,36.68848 -31.90445,52.05067 l -0.65155,5.13333 18.674,-0.315 c 19.933,-0.337 26.356,-1.067 37.822,-4.299 44.091,-12.427 76.238,-49.608 83.235,-96.267 1.0921,-7.27956 4.07157,-26.12495 4.07157,-26.12495 -1.75588,-0.16381 -3.32148,7.97899 -6.88576,9.74281 -0.75568,0.37396 -1.68893,-0.0811 -2.52777,-0.0923 -1.03377,-0.0137 -2.06951,0.005 -3.13553,0.0667 -0.72882,4.50994 -0.72745,4.70169 -1.43351,9.54074 -3.431,46.172 -38.259,85.379 -84.266,94.86 -4.963,1.022 -29.967,2.641 -32.608,2.11 -0.047,-0.009 0.67,-1.972 1.593,-4.361 4.019,-10.405 11.69,-20.693 24.864,-33.346 4.874,-4.68 11.596,-11.177 14.937,-14.437 3.342,-3.26 6.138,-5.927 6.213,-5.927 0.075,0 0.151,8.822 0.169,19.605 0.037,22.221 0.051,22.282 4.791,21.513 6.615,-1.073 6.789,-1.835 6.789,-29.682 v -23.254 l 12.918,-13.088 12.918,-13.088 2.951,0.176 c 9.641,0.576 16.729,-6.099 16.075,-15.137 -0.65,-8.985 -10.2,-14.281 -18.161,-10.072 m 6.996,7.955 c 4.334,1.811 3.221,7.655 -1.458,7.655 -4.126,0 -4.91014,-4.25158 -3.18893,-6.46814 1.20085,-1.08857 2.03293,-2.27886 4.64693,-1.18686 m -242.370029,0.92749 c 2.427,2.427 -0.301204,6.96783 -1.469855,7.80299 -4.178827,-1.58228 -5.990754,-3.38756 -5.403754,-5.78956 0.856,-3.501 4.570609,-4.31543 6.873609,-2.01343"
       sodipodi:nodetypes="cccccscccccsccccsccccccscccscccssccccsccccssccccccccsccccccccscccacscccccscccsssccccsccscccscccccccccccscccsacccccccccsccccccccccccascccccccsccscccccccscccccc" />
  </g>
</svg>
